<svg width="24" height="24" viewBox="0 0 24 24" fill="none" xmlns="http://www.w3.org/2000/svg">
<path fill-rule="evenodd" clip-rule="evenodd" d="M4 7H20V17H4V7ZM2 7C2 5.89543 2.89543 5 4 5H20C21.1046 5 22 5.89543 22 7V9.26756C22.5978 9.61337 23 10.2597 23 11V13C23 13.7403 22.5978 14.3866 22 14.7324V17C22 18.1046 21.1046 19 20 19H4C2.89543 19 2 18.1046 2 17V7ZM6 8C6.55228 8 7 8.44772 7 9V15C7 15.5523 6.55228 16 6 16C5.44772 16 5 15.5523 5 15V9C5 8.44772 5.44772 8 6 8ZM10 9C10 8.44772 9.55228 8 9 8C8.44772 8 8 8.44772 8 9V15C8 15.5523 8.44772 16 9 16C9.55228 16 10 15.5523 10 15V9ZM12 8C12.5523 8 13 8.44772 13 9V15C13 15.5523 12.5523 16 12 16C11.4477 16 11 15.5523 11 15V9C11 8.44772 11.4477 8 12 8ZM16 9C16 8.44772 15.5523 8 15 8C14.4477 8 14 8.44772 14 9V15C14 15.5523 14.4477 16 15 16C15.5523 16 16 15.5523 16 15V9Z" fill="black"/>
</svg>
