<svg width="24" height="24" viewBox="0 0 24 24" fill="none" xmlns="http://www.w3.org/2000/svg">
<path fill-rule="evenodd" clip-rule="evenodd" d="M20 7H4V17H20V7ZM4 5C2.89543 5 2 5.89543 2 7V17C2 18.1046 2.89543 19 4 19H20C21.1046 19 22 18.1046 22 17V14.7324C22.5978 14.3866 23 13.7403 23 13V11C23 10.2597 22.5978 9.61337 22 9.26756V7C22 5.89543 21.1046 5 20 5H4ZM7 9C7 8.44772 6.55228 8 6 8C5.44772 8 5 8.44772 5 9V15C5 15.5523 5.44772 16 6 16C6.55228 16 7 15.5523 7 15V9ZM9 8C9.55228 8 10 8.44772 10 9V15C10 15.5523 9.55228 16 9 16C8.44772 16 8 15.5523 8 15V9C8 8.44772 8.44772 8 9 8ZM13 9C13 8.44772 12.5523 8 12 8C11.4477 8 11 8.44772 11 9V15C11 15.5523 11.4477 16 12 16C12.5523 16 13 15.5523 13 15V9ZM15 8C15.5523 8 16 8.44772 16 9V15C16 15.5523 15.5523 16 15 16C14.4477 16 14 15.5523 14 15V9C14 8.44772 14.4477 8 15 8ZM19 9C19 8.44772 18.5523 8 18 8C17.4477 8 17 8.44772 17 9V15C17 15.5523 17.4477 16 18 16C18.5523 16 19 15.5523 19 15V9Z" fill="black"/>
</svg>
