<svg width="24" height="24" viewBox="0 0 24 24" fill="none" xmlns="http://www.w3.org/2000/svg">
<path d="M16.8801 8.46181L17.2563 10.0576L18.8948 10.0018C18.9297 10.0006 18.9648 10 19 10C20.6569 10 22 11.3431 22 13C22 14.6569 20.6569 16 19 16H18C17.4477 16 17 16.4477 17 17C17 17.5523 17.4477 18 18 18H19C21.7614 18 24 15.7614 24 13C24 10.2386 21.7614 8 19 8C18.942 8 18.8843 8.00099 18.8268 8.00295C18.1507 5.13476 15.5746 3 12.5 3C10.1656 3 8.11865 4.23057 6.97241 6.0784C6.6559 6.02682 6.33109 6 6 6C2.68629 6 0 8.68629 0 12C0 15.3137 2.68629 18 6 18C6.55228 18 7 17.5523 7 17C7 16.4477 6.55228 16 6 16C3.79086 16 2 14.2091 2 12C2 9.79086 3.79086 8 6 8C6.22291 8 6.44015 8.01804 6.65072 8.05236L7.96828 8.26707L8.67197 7.13267C9.46875 5.8482 10.8861 5 12.5 5C14.626 5 16.4121 6.47624 16.8801 8.46181Z" fill="black"/>
<path d="M12 12L15 15" stroke="black" stroke-width="2" stroke-linecap="round"/>
<path d="M12 12L9 15" stroke="black" stroke-width="2" stroke-linecap="round"/>
<path d="M12 20.5V12" stroke="black" stroke-width="2" stroke-linecap="round"/>
</svg>
