<svg width="24" height="24" viewBox="0 0 24 24" fill="none" xmlns="http://www.w3.org/2000/svg">
<path fill-rule="evenodd" clip-rule="evenodd" d="M13 3H11V5.07089C9.75432 5.24907 8.61443 5.75521 7.67062 6.49904L6 4.82843L4.82843 6L6.49904 7.67062C5.75521 8.61443 5.24907 9.75432 5.07089 11H3V13H5.07089C5.24907 14.2457 5.75521 15.3856 6.49904 16.3294L4.82843 18L6 19.1716L7.67062 17.501C8.61443 18.2448 9.75432 18.7509 11 18.9291V21H13V18.9291C14.2457 18.7509 15.3856 18.2448 16.3294 17.501L18 19.1716L19.1716 18L17.501 16.3294C18.2448 15.3856 18.7509 14.2457 18.9291 13H21V11H18.9291C18.7509 9.75432 18.2448 8.61443 17.501 7.67062L19.1716 6L18 4.82843L16.3294 6.49904C15.3856 5.75521 14.2457 5.24907 13 5.07089V3ZM3 15H5L3.41421 16.5858C2.63317 17.3668 2.63316 18.6332 3.41421 19.4142L4.58579 20.5858C5.36683 21.3668 6.63316 21.3668 7.41421 20.5858L9 19V21C9 22.1046 9.89543 23 11 23H13C14.1046 23 15 22.1046 15 21V19L16.5858 20.5858C17.3668 21.3668 18.6332 21.3668 19.4142 20.5858L20.5858 19.4142C21.3668 18.6332 21.3668 17.3668 20.5858 16.5858L19 15H21C22.1046 15 23 14.1046 23 13V11C23 9.89543 22.1046 9 21 9H19L20.5858 7.41421C21.3668 6.63317 21.3668 5.36684 20.5858 4.58579L19.4142 3.41421C18.6332 2.63317 17.3668 2.63316 16.5858 3.41421L15 5V3C15 1.89543 14.1046 1 13 1H11C9.89543 1 9 1.89543 9 3V5L7.41421 3.41421C6.63317 2.63317 5.36684 2.63316 4.58579 3.41421L3.41421 4.58579C2.63317 5.36684 2.63316 6.63316 3.41421 7.41421L5 9H3C1.89543 9 1 9.89543 1 11V13C1 14.1046 1.89543 15 3 15Z" fill="black"/>
<path fill-rule="evenodd" clip-rule="evenodd" d="M6.71465 4.71464C7.94472 3.82071 9.40994 3.2307 11 3.05493V5.07089C9.95918 5.21977 8.99221 5.59761 8.15176 6.15176L6.71465 4.71464ZM4.71464 6.71464C3.82071 7.94471 3.2307 9.40993 3.05493 11H5.07089C5.21977 9.95917 5.59761 8.9922 6.15176 8.15175L4.71464 6.71464ZM15.8483 17.8482C15.0078 18.4024 14.0408 18.7802 13 18.9291V20.9451C14.5901 20.7693 16.0553 20.1793 17.2854 19.2854L15.8483 17.8482ZM19.2854 17.2854C20.1793 16.0553 20.7693 14.5901 20.9451 13H18.9291C18.7802 14.0408 18.4024 15.0078 17.8482 15.8482L19.2854 17.2854ZM3 11.9927L3 12L3 12.0073V11.9927ZM3.05493 13C3.2307 14.5901 3.82071 16.0553 4.71464 17.2854L6.15176 15.8483C5.59761 15.0078 5.21977 14.0408 5.07089 13H3.05493ZM11 20.9451C9.40994 20.7693 7.94472 20.1793 6.71465 19.2854L8.15177 17.8483C8.99221 18.4024 9.95918 18.7802 11 18.9291V20.9451ZM18.9291 11C18.7802 9.95918 18.4024 8.99221 17.8482 8.15177L19.2854 6.71465C20.1793 7.94472 20.7693 9.40994 20.9451 11H18.9291ZM13 3.05493C14.5901 3.23071 16.0553 3.82071 17.2854 4.71465L15.8483 6.15177C15.0078 5.59762 14.0408 5.21977 13 5.07089V3.05493Z" fill="black"/>
<circle cx="12" cy="12" r="4" stroke="black" stroke-width="2"/>
</svg>
