<svg width="24" height="24" viewBox="0 0 24 24" fill="none" xmlns="http://www.w3.org/2000/svg">
<path fill-rule="evenodd" clip-rule="evenodd" d="M6 12H18V21H6V12ZM4 12C4 10.8954 4.89543 10 6 10H18C19.1046 10 20 10.8954 20 12V21C20 22.1046 19.1046 23 18 23H6C4.89543 23 4 22.1046 4 21V12ZM13.5 15.5C13.5 15.9443 13.3069 16.3434 13 16.6181V17.5C13 18.0523 12.5523 18.5 12 18.5C11.4477 18.5 11 18.0523 11 17.5V16.6181C10.6931 16.3434 10.5 15.9443 10.5 15.5C10.5 14.6716 11.1716 14 12 14C12.8284 14 13.5 14.6716 13.5 15.5Z" fill="black"/>
<path fill-rule="evenodd" clip-rule="evenodd" d="M12 3C14.2091 3 16 4.79086 16 7V12H18V10V9V7C18 3.68629 15.3137 1 12 1C8.68629 1 6 3.68629 6 7V9V10V12H8V7C8 4.79086 9.79086 3 12 3Z" fill="black"/>
</svg>
