<svg width="24" height="24" viewBox="0 0 24 24" fill="none" xmlns="http://www.w3.org/2000/svg">
<circle cx="12" cy="12" r="8" stroke="black" stroke-width="2"/>
<path fill-rule="evenodd" clip-rule="evenodd" d="M14.5 16.232C17.2317 14.6549 19.5918 12.9137 21.1954 11.3156C21.9864 10.5273 22.6802 9.68863 23.1156 8.84743C23.5065 8.09203 23.9666 6.77228 23.232 5.50002C22.4869 4.20942 21.0855 3.96736 20.2423 3.93753C19.2926 3.90393 18.2136 4.0955 17.1295 4.39513C16.6527 4.52691 16.1523 4.68605 15.633 4.87058C16.3777 5.25084 17.055 5.74437 17.6421 6.32845C19.6414 5.77314 21.0844 5.78016 21.5 6.50002C21.9189 7.22556 21.2139 8.48612 19.7344 9.94785C19.8892 10.5331 19.9794 11.1446 19.9969 11.7742C19.9795 11.1581 19.8909 10.5456 19.7328 9.9494C18.2863 11.3781 16.1 12.9989 13.5 14.5C10.8783 16.0136 8.34369 17.12 6.3579 17.6716C6.94775 18.2583 7.62633 18.7503 8.36922 19.1287C10.2437 18.4624 12.3635 17.4655 14.5 16.232ZM8.36702 19.1294C7.62228 18.7492 6.94499 18.2556 6.35788 17.6716C4.35861 18.2269 2.9156 18.2199 2.49998 17.5C2.08109 16.7745 2.78607 15.5139 4.26565 14.0521C4.09234 13.3972 4.00001 12.7094 4.00001 12C4.00001 11.8577 4.00373 11.7163 4.01106 11.5759C3.57282 11.9504 3.16915 12.3211 2.80459 12.6844C2.01357 13.4727 1.31974 14.3114 0.884401 15.1526C0.493462 15.908 0.0333953 17.2277 0.767934 18.5C1.51306 19.7906 2.91448 20.0327 3.75765 20.0625C4.70732 20.0961 5.78635 19.9045 6.87048 19.6049C7.34725 19.4731 7.84772 19.314 8.36702 19.1294ZM19.9969 11.7742C19.999 11.8492 20 11.9245 20 12C20 12.0839 19.9987 12.1675 19.9962 12.2507C20.0011 12.0918 20.0014 11.9329 19.9969 11.7742Z" fill="black"/>
</svg>
