<svg width="24" height="24" viewBox="0 0 24 24" fill="none" xmlns="http://www.w3.org/2000/svg">
<g clip-path="url(#clip0_232_31)">
<path d="M20.6309 21H3.36908C2.61002 21 2.12771 20.1875 2.49119 19.5211L11.1221 3.6978C11.5011 3.00294 12.4989 3.00294 12.8779 3.6978L21.5088 19.5211C21.8723 20.1875 21.39 21 20.6309 21Z" stroke="black" stroke-width="2"/>
<path fill-rule="evenodd" clip-rule="evenodd" d="M13 10C13 9.44772 12.5523 9 12 9C11.4477 9 11 9.44772 11 10V14C11 14.5523 11.4477 15 12 15C12.5523 15 13 14.5523 13 14V10ZM12 18C12.5523 18 13 17.5523 13 17C13 16.4477 12.5523 16 12 16C11.4477 16 11 16.4477 11 17C11 17.5523 11.4477 18 12 18Z" fill="black"/>
</g>
<defs>
<clipPath id="clip0_232_31">
<rect width="24" height="24" fill="white"/>
</clipPath>
</defs>
</svg>
