<svg width="24" height="24" viewBox="0 0 24 24" fill="none" xmlns="http://www.w3.org/2000/svg">
<path fill-rule="evenodd" clip-rule="evenodd" d="M7 13C4.79086 13 3 14.7909 3 17C3 19.2091 4.79086 21 7 21H11.4722H12.5278H17C19.2091 21 21 19.2091 21 17C21 14.7909 19.2091 13 17 13H12.5278H11.4722H7ZM7 23C3.68629 23 1 20.3137 1 17C1 13.6863 3.68629 11 7 11H9H15H17C20.3137 11 23 13.6863 23 17C23 20.3137 20.3137 23 17 23H15H9H7ZM14 18C14.5523 18 15 17.5523 15 17C15 16.4477 14.5523 16 14 16C13.4477 16 13 16.4477 13 17C13 17.5523 13.4477 18 14 18ZM17 15C17 15.5523 16.5523 16 16 16C15.4477 16 15 15.5523 15 15C15 14.4477 15.4477 14 16 14C16.5523 14 17 14.4477 17 15ZM16 20C16.5523 20 17 19.5523 17 19C17 18.4477 16.5523 18 16 18C15.4477 18 15 18.4477 15 19C15 19.5523 15.4477 20 16 20ZM19 17C19 17.5523 18.5523 18 18 18C17.4477 18 17 17.5523 17 17C17 16.4477 17.4477 16 18 16C18.5523 16 19 16.4477 19 17ZM9 15C9 14.4477 8.55228 14 8 14C7.44772 14 7 14.4477 7 15V16H6C5.44772 16 5 16.4477 5 17C5 17.5523 5.44772 18 6 18H7V19C7 19.5523 7.44772 20 8 20C8.55228 20 9 19.5523 9 19V18H10C10.5523 18 11 17.5523 11 17C11 16.4477 10.5523 16 10 16H9V15Z" fill="black"/>
<path d="M12 11V11C12 9.89543 12.8954 9 14 9H14.5C15.3284 9 16 8.32843 16 7.5V7.5C16 6.67157 15.3284 6 14.5 6H9.5C8.67157 6 8 5.32843 8 4.5V4.5C8 3.67157 8.67157 3 9.5 3H10C11.1046 3 12 2.10457 12 1V1" stroke="black" stroke-width="2" stroke-linecap="round"/>
</svg>
